<?xml version="1.0" encoding="utf-8"?>
<!-- Generator: Adobe Illustrator 22.1.0, SVG Export Plug-In . SVG Version: 6.00 Build 0)  -->
<svg version="1.1" id="Layer_1" xmlns="http://www.w3.org/2000/svg" xmlns:xlink="http://www.w3.org/1999/xlink" x="0px" y="0px"
	 viewBox="0 0 477 87" style="enable-background:new 0 0 477 87;" xml:space="preserve">
<style type="text/css">
	.st0{fill:#E32C23;}
</style>
<title>logo</title>
<desc>Created with Sketch.</desc>
<g id="Noesis---Desktop">
	<g id="Home" transform="translate(-444.000000, -351.000000)">
		<g id="Header" transform="translate(-1.000000, 0.000000)">
			<path id="logo" class="st0" d="M717.3,380.5c4.6,0,8.4,3.9,8.4,8.5c0,4.6-3.9,8.4-8.4,8.4c-4.6,0-8.3-3.8-8.3-8.4
				C709,384.4,712.8,380.5,717.3,380.5L717.3,380.5z M745.2,404h-3.7c-1.1,0-2-1-2-2.1v-7.4c0-1.2,0.9-2.1,2-2.1h3.7v-12.3
				c0-1.1,1-2.1,2.1-2.1l9-0.1c1.1,0,2,1,2,2.1v12.4h9.7c1.2,0,2.1,0.9,2.1,2.1v7.4c0,1.1-0.9,2.1-2.1,2.1h-9.7v17.7
				c0,3.1,1.6,3.5,3.4,3.5c1.9,0,4.2-0.8,5.4-1.2c1.2-0.4,2.1,0.1,2.4,1.2l2.2,7c0.4,1.1-0.1,2.2-1.2,2.7c-0.5,0.3-7.7,2.9-13.1,2.9
				c-8.5,0-12.2-5.3-12.2-14.2V404L745.2,404z M799.9,391.3c11.3,0,20.5,8.6,20.5,20.5c0,0.8-0.1,2.2-0.2,3
				c-0.1,1.1-1.1,1.9-2.1,1.9h-28.1c0.3,4.5,4.2,9.6,10.5,9.6c3.4,0,6.6-1.3,8.6-2.8c1.1-0.7,2.1-0.9,2.9,0l4.5,5.2
				c0.8,0.8,1,2-0.1,2.9c-3.6,3.4-9.2,6.1-16.4,6.1c-13.2,0-22.5-10.5-22.5-23.2C777.5,402.1,786.9,391.3,799.9,391.3L799.9,391.3z
				 M807.6,409c-0.3-4.1-3.8-7.5-8-7.5c-4.4,0-8,3.3-8.6,7.5H807.6L807.6,409z M849.7,391.3c6.8,0,12.1,2.8,16.3,7.8
				c0.8,1,0.5,2.3-0.5,3.1l-5.1,4.9c-1,0.9-2,0.3-2.7-0.3c-1.8-2-4.5-3.5-7.6-3.5c-5.9,0-10.8,5.1-10.8,11.3
				c0,6.3,4.7,11.3,10.7,11.3c4.7,0,6.8-2.3,8.8-4.2c0.8-0.8,1.9-1,2.7-0.3l4.7,4.1c1.1,0.9,1.5,2,0.8,3.1
				c-3.7,5.9-9.6,9.3-17.4,9.3c-12.4,0-23.3-9.9-23.3-23.2C826.3,401.5,837.4,391.3,849.7,391.3L849.7,391.3z M876.5,361.4
				c0-1.1,1-2.1,2.1-2.1h9.3c1.1,0,2.1,1,2.1,2.1V395c2.2-1.7,6.5-3.6,11.6-3.6c14,0,19.7,10.8,19.7,22v21.2c0,1.1-1,2.1-2.1,2.1
				h-8.9c-1.2,0-2.1-1-2.1-2.1v-21.3c0-6.1-3.4-9.9-8.7-9.9c-5.1,0-8.5,3.3-9.6,7.8v23.4c0,1.2-0.7,2.1-2.3,2.1h-9.1
				c-1.1,0-2.1-1-2.1-2.1V361.4L876.5,361.4z M445,354.7c0-1.2,1-2.1,2.1-2.1h4.2c1,0,1.5,0.6,1.9,1.3l1.5,4.1
				c1.6-1.8,7-6.5,15.5-6.5c14,0,19.6,10.5,19.6,22v21.2c0,1.1-1,2.1-2.1,2.1h-9c-1.2,0-2.1-1-2.1-2.1v-21.9c0-5.7-3-9.4-8.2-9.4
				c-5.7,0-9.2,4-10.3,7v24.3c0,1.5-0.7,2.1-2.7,2.1h-8.1c-1.1,0-2.1-1-2.1-2.1V354.7L445,354.7z M521.1,351.5
				c12.4,0,22.5,10.6,22.5,23.1c0,12.7-10.1,23.3-22.5,23.3c-12.4,0-22.5-10.6-22.5-23.3C498.6,362.1,508.7,351.5,521.1,351.5
				L521.1,351.5z M521.1,385.9c5.8,0,10.5-5.1,10.5-11.4c0-6.2-4.7-11.2-10.5-11.2c-5.9,0-10.5,5-10.5,11.2
				C510.6,380.9,515.2,385.9,521.1,385.9L521.1,385.9z M572.5,351.5c11.3,0,20.5,8.6,20.5,20.5c0,0.8-0.1,2.2-0.2,3
				c-0.1,1.1-1.1,1.9-2.1,1.9h-28.1c0.3,4.5,4.2,9.6,10.5,9.6c3.4,0,6.6-1.3,8.6-2.8c1.1-0.7,2.1-0.9,2.9,0l4.5,5.2
				c0.8,0.8,1,2-0.1,2.9c-3.6,3.4-9.2,6.1-16.4,6.1c-13.2,0-22.5-10.5-22.5-23.2C550.1,362.2,559.5,351.5,572.5,351.5L572.5,351.5z
				 M580.2,369.2c-0.3-4.1-3.8-7.5-8-7.5c-4.4,0-8,3.3-8.6,7.5H580.2L580.2,369.2z M599.9,391.5l3-6c0.4-1.1,1.5-1.3,2.5-0.8
				c0,0,4.9,2.7,10,2.7c2.2,0,3.7-0.9,3.7-2.8c0-2-1.5-3.2-7.4-5.5c-8.5-3.3-12.4-7.8-12.4-14.6s4.9-13,16.1-13
				c6.5,0,11.2,1.9,13.5,3.4c1,0.7,1.5,1.9,1,3l-2.7,5.6c-0.5,1-1.8,1.1-2.6,0.8c0,0-4.9-2.3-9.1-2.3c-2.6,0-3.7,1.1-3.7,2.5
				c0,2,2,2.7,6,4.3c8.5,3.3,14.8,7,14.8,15.6c0,7.3-6.4,13.5-17.5,13.5c-7.2,0-12.3-2.3-14.6-4.1
				C599.9,393.2,599.4,392.3,599.9,391.5L599.9,391.5z M640.1,354.7c0-1.2,1-2.1,2.1-2.1h9.1c1.1,0,2.1,0.9,2.1,2.1v40
				c0,1.1-1,2.1-2.1,2.1h-9.1c-1.1,0-2.1-1-2.1-2.1V354.7L640.1,354.7z M664.1,391.5l3-6c0.4-1.1,1.5-1.3,2.5-0.8
				c0,0,4.9,2.7,10,2.7c2.2,0,3.7-0.9,3.7-2.8c0-2-1.5-3.2-7.4-5.5c-8.5-3.3-12.4-7.8-12.4-14.6s4.9-13,16.1-13
				c6.5,0,11.2,1.9,13.5,3.4c1,0.7,1.5,1.9,1,3l-2.7,5.6c-0.5,1-1.8,1.1-2.6,0.8c0,0-4.9-2.3-9.1-2.3c-2.6,0-3.7,1.1-3.7,2.5
				c0,2,2,2.7,6,4.3c8.5,3.3,14.8,7,14.8,15.6c0,7.3-6.4,13.5-17.5,13.5c-7.2,0-12.3-2.3-14.6-4.1
				C664.1,393.2,663.7,392.3,664.1,391.5L664.1,391.5z"/>
		</g>
	</g>
</g>
</svg>
